<svg width="1771" height="1382" viewBox="0 0 1771 1382" fill="none" xmlns="http://www.w3.org/2000/svg">
<path d="M1709.76 3H187.572C171.544 3 158.551 15.9908 158.551 32.0157V1189.53C158.551 1205.56 171.544 1218.55 187.572 1218.55H1709.76C1725.79 1218.55 1738.79 1205.56 1738.79 1189.53V32.0157C1738.79 15.9908 1725.79 3 1709.76 3Z" fill="#F4F1ED" stroke="#E23E57" stroke-width="6" stroke-linecap="round" stroke-linejoin="round"/>
<path d="M158.551 94.0781H1738.79" stroke="#E23E57" stroke-width="6" stroke-linecap="round" stroke-linejoin="round"/>
<path d="M355.657 40.5073H342.022C337.491 40.5073 333.819 44.1793 333.819 48.7089V62.3416C333.819 66.8712 337.491 70.5432 342.022 70.5432H355.657C360.188 70.5432 363.86 66.8712 363.86 62.3416V48.7089C363.86 44.1793 360.188 40.5073 355.657 40.5073Z" fill="#311D3F"/>
<path d="M304.417 40.5073H290.782C286.252 40.5073 282.579 44.1793 282.579 48.7089V62.3416C282.579 66.8712 286.252 70.5432 290.782 70.5432H304.417C308.948 70.5432 312.621 66.8712 312.621 62.3416V48.7089C312.621 44.1793 308.948 40.5073 304.417 40.5073Z" fill="#311D3F"/>
<path d="M253.167 40.5073H239.532C235.002 40.5073 231.329 44.1793 231.329 48.7089V62.3416C231.329 66.8712 235.002 70.5432 239.532 70.5432H253.167C257.698 70.5432 261.371 66.8712 261.371 62.3416V48.7089C261.371 44.1793 257.698 40.5073 253.167 40.5073Z" fill="#311D3F"/>
<path d="M349.465 35.0063H335.829C331.299 35.0063 327.626 38.6783 327.626 43.208V56.8406C327.626 61.3703 331.299 65.0422 335.829 65.0422H349.465C353.995 65.0422 357.668 61.3703 357.668 56.8406V43.208C357.668 38.6783 353.995 35.0063 349.465 35.0063Z" fill="#C5DCDD" stroke="#88304E" stroke-width="6" stroke-linecap="round" stroke-linejoin="round"/>
<path d="M298.215 35.0063H284.58C280.049 35.0063 276.376 38.6783 276.376 43.208V56.8406C276.376 61.3703 280.049 65.0422 284.58 65.0422H298.215C302.745 65.0422 306.418 61.3703 306.418 56.8406V43.208C306.418 38.6783 302.745 35.0063 298.215 35.0063Z" fill="#FFBF00" stroke="#88304E" stroke-width="6" stroke-linecap="round" stroke-linejoin="round"/>
<path d="M246.975 35.0063H233.34C228.809 35.0063 225.136 38.6783 225.136 43.208V56.8406C225.136 61.3703 228.809 65.0422 233.34 65.0422H246.975C251.505 65.0422 255.178 61.3703 255.178 56.8406V43.208C255.178 38.6783 251.505 35.0063 246.975 35.0063Z" fill="#F46F40" stroke="#88304E" stroke-width="6" stroke-linecap="round" stroke-linejoin="round"/>
<path d="M3 1107.47C8.86104 1101.63 16.7963 1098.35 25.0686 1098.35C33.3409 1098.35 41.2761 1101.63 47.1372 1107.47V1107.47C52.9982 1113.3 60.9335 1116.58 69.2058 1116.58C77.4781 1116.58 85.4133 1113.3 91.2744 1107.47L94.5456 1104.24C100.407 1098.4 108.342 1095.12 116.614 1095.12C124.886 1095.12 132.822 1098.4 138.683 1104.24L143.495 1109.03C149.356 1114.86 157.291 1118.14 165.563 1118.14C173.836 1118.14 181.771 1114.86 187.632 1109.03L191.633 1105.03C197.497 1099.19 205.431 1095.92 213.702 1095.92C221.973 1095.92 229.907 1099.19 235.771 1105.03" stroke="#E23E57" stroke-width="6" stroke-linecap="round" stroke-linejoin="round"/>
<path d="M191.583 1105.24C197.445 1099.4 205.38 1096.12 213.652 1096.12C221.924 1096.12 229.86 1099.4 235.721 1105.24L240.212 1109.71C246.073 1115.54 254.009 1118.82 262.281 1118.82C270.553 1118.82 278.489 1115.54 284.35 1109.71L287.081 1106.99C292.942 1101.15 300.877 1097.87 309.149 1097.87C317.422 1097.87 325.357 1101.15 331.218 1106.99V1106.99C337.079 1112.82 345.014 1116.1 353.286 1116.1C361.559 1116.1 369.494 1112.82 375.355 1106.99L378.586 1103.77C384.447 1097.93 392.383 1094.65 400.655 1094.65C408.927 1094.65 416.862 1097.93 422.723 1103.77L427.535 1108.56C433.396 1114.39 441.332 1117.67 449.604 1117.67C457.876 1117.67 465.811 1114.39 471.672 1108.56L475.674 1104.56C481.538 1098.72 489.472 1095.45 497.743 1095.45C506.013 1095.45 513.948 1098.72 519.811 1104.56" stroke="#E23E57" stroke-width="6" stroke-linecap="round" stroke-linejoin="round"/>
<path d="M3 1131.64C8.86104 1125.8 16.7963 1122.53 25.0686 1122.53C33.3409 1122.53 41.2761 1125.8 47.1372 1131.64V1131.64C53.0008 1137.47 60.9351 1140.75 69.2058 1140.75C77.4764 1140.75 85.4108 1137.47 91.2744 1131.64L94.5056 1128.41C100.369 1122.58 108.304 1119.31 116.574 1119.31C124.845 1119.31 132.779 1122.58 138.643 1128.41L143.455 1133.21C149.316 1139.05 157.251 1142.33 165.523 1142.33C173.796 1142.33 181.731 1139.05 187.592 1133.21L191.593 1129.21C197.457 1123.38 205.391 1120.11 213.662 1120.11C221.933 1120.11 229.867 1123.38 235.731 1129.21" stroke="#E23E57" stroke-width="6" stroke-linecap="round" stroke-linejoin="round"/>
<path d="M191.583 1129.37C197.445 1123.53 205.38 1120.26 213.652 1120.26C221.924 1120.26 229.86 1123.53 235.721 1129.37L240.212 1133.84C246.073 1139.68 254.009 1142.96 262.281 1142.96C270.553 1142.96 278.489 1139.68 284.35 1133.84L287.081 1131.12C292.942 1125.28 300.877 1122.01 309.149 1122.01C317.422 1122.01 325.357 1125.28 331.218 1131.12V1131.12C337.081 1136.95 345.016 1140.23 353.286 1140.23C361.557 1140.23 369.491 1136.95 375.355 1131.12L378.586 1127.89C384.45 1122.06 392.384 1118.79 400.655 1118.79C408.925 1118.79 416.86 1122.06 422.723 1127.89L427.535 1132.69C433.396 1138.53 441.332 1141.81 449.604 1141.81C457.876 1141.81 465.811 1138.53 471.672 1132.69L475.674 1128.69C481.538 1122.86 489.472 1119.59 497.743 1119.59C506.013 1119.59 513.948 1122.86 519.811 1128.69" stroke="#E23E57" stroke-width="6" stroke-linecap="round" stroke-linejoin="round"/>
<path d="M1328.34 243.847C1334.99 243.847 1340.39 238.451 1340.39 231.795C1340.39 225.139 1334.99 219.743 1328.34 219.743C1321.68 219.743 1316.28 225.139 1316.28 231.795C1316.28 238.451 1321.68 243.847 1328.34 243.847Z" stroke="#E23E57" stroke-width="6" stroke-linecap="round" stroke-linejoin="round"/>
<path d="M1279.92 207.25C1289.43 207.25 1297.13 199.543 1297.13 190.037C1297.13 180.53 1289.43 172.823 1279.92 172.823C1270.41 172.823 1262.7 180.53 1262.7 190.037C1262.7 199.543 1270.41 207.25 1279.92 207.25Z" fill="#EFAF00" stroke="#88304E" stroke-width="6" stroke-linecap="round" stroke-linejoin="round"/>
<path d="M1494.61 615.73C1559.37 615.73 1611.87 563.243 1611.87 498.497C1611.87 433.751 1559.37 381.264 1494.61 381.264C1429.85 381.264 1377.35 433.751 1377.35 498.497C1377.35 563.243 1429.85 615.73 1494.61 615.73Z" fill="#311D3F"/>
<path d="M1494.61 603.948C1559.37 603.948 1611.87 551.461 1611.87 486.715C1611.87 421.969 1559.37 369.482 1494.61 369.482C1429.85 369.482 1377.35 421.969 1377.35 486.715C1377.35 551.461 1429.85 603.948 1494.61 603.948Z" fill="#F4F1ED" stroke="#E23E57" stroke-width="6" stroke-linecap="round" stroke-linejoin="round"/>
<path d="M1516.52 551.598H1449.37L1460.95 457.039H1528.09L1516.52 551.598Z" fill="#F4F1ED"/>
<path d="M1546.07 551.598H1516.56L1528.14 457.039H1534.5L1546.07 551.598Z" fill="#FFBF00"/>
<path d="M1541.24 550.447H1512.18L1524.29 451.518H1529.13L1541.24 550.447Z" stroke="#E23E57" stroke-width="6" stroke-linecap="round" stroke-linejoin="round"/>
<path d="M1524.29 451.518L1512.18 550.447H1443.14L1455.24 451.518H1524.29Z" stroke="#E23E57" stroke-width="6" stroke-linecap="round" stroke-linejoin="round"/>
<path d="M1495.98 421.842H1500.75C1502.21 421.842 1503.65 422.129 1504.99 422.685C1506.33 423.242 1507.56 424.057 1508.58 425.085C1509.61 426.113 1510.43 427.334 1510.98 428.677C1511.54 430.021 1511.83 431.46 1511.83 432.914V451.568H1484.91V432.914C1484.91 429.978 1486.07 427.162 1488.15 425.085C1490.23 423.009 1493.04 421.842 1495.98 421.842Z" stroke="#E23E57" stroke-width="6" stroke-linecap="round" stroke-linejoin="round"/>
<path d="M1488.09 421.842H1492.86C1494.31 421.842 1495.75 422.129 1497.1 422.685C1498.44 423.242 1499.66 424.057 1500.69 425.085C1501.72 426.113 1502.53 427.334 1503.09 428.677C1503.65 430.021 1503.93 431.46 1503.93 432.914V451.568H1477.08V432.914C1477.08 429.99 1478.24 427.184 1480.3 425.11C1482.36 423.035 1485.16 421.861 1488.09 421.842V421.842Z" stroke="#E23E57" stroke-width="6" stroke-linecap="round" stroke-linejoin="round"/>
<path d="M930.871 1094.61C928.764 1094.58 926.671 1094.95 924.711 1095.73C922.752 1096.5 920.963 1097.65 919.449 1099.11C917.935 1100.58 916.725 1102.33 915.889 1104.26C915.052 1106.19 914.605 1108.27 914.574 1110.38V1242.26C914.574 1268.75 936.773 1290.21 964.154 1290.21H1047.75C1064.02 1290.21 1077.22 1302.98 1077.22 1318.72" stroke="#E23E57" stroke-width="6" stroke-linecap="round" stroke-linejoin="round"/>
<path d="M879.851 1094.61C881.957 1094.58 884.05 1094.95 886.01 1095.73C887.97 1096.5 889.758 1097.65 891.272 1099.11C892.786 1100.58 893.996 1102.33 894.833 1104.26C895.669 1106.19 896.116 1108.27 896.147 1110.38V1242.26C896.147 1268.75 873.949 1290.21 846.568 1290.21H762.975C746.699 1290.21 733.504 1302.98 733.504 1318.72" stroke="#E23E57" stroke-width="6" stroke-linecap="round" stroke-linejoin="round"/>
<path d="M905.381 1081.51C1123.01 1081.51 1299.43 914.643 1299.43 708.799C1299.43 502.955 1123.01 336.086 905.381 336.086C687.751 336.086 511.328 502.955 511.328 708.799C511.328 914.643 687.751 1081.51 905.381 1081.51Z" fill="#F4F1ED" stroke="#E23E57" stroke-width="6" stroke-linecap="round" stroke-linejoin="round"/>
<path d="M905.381 1014.95C1098.24 1014.95 1254.58 867.071 1254.58 684.655C1254.58 502.238 1098.24 354.36 905.381 354.36C712.525 354.36 556.185 502.238 556.185 684.655C556.185 867.071 712.525 1014.95 905.381 1014.95Z" fill="#EAE5DF"/>
<path d="M1144.39 886.105C1147.68 886.595 1150.77 887.998 1153.3 890.155C1155.83 892.311 1157.71 895.135 1158.72 898.304C1159.72 901.474 1159.82 904.862 1159 908.084C1158.17 911.306 1156.46 914.232 1154.06 916.53C1090.73 977.282 1002.71 1014.94 905.381 1014.94C808.233 1014.94 720.309 977.412 657.035 916.851C654.632 914.553 652.921 911.629 652.097 908.408C651.272 905.188 651.367 901.802 652.37 898.632C653.373 895.463 655.244 892.639 657.772 890.479C660.299 888.32 663.381 886.912 666.668 886.415C740.077 875.342 821.219 869.201 906.542 869.201C991.085 869.191 1071.52 875.192 1144.39 886.105Z" fill="#FFFBF8" stroke="#E23E57" stroke-width="6" stroke-linecap="round" stroke-linejoin="round"/>
<path d="M734.024 1379C750.682 1379 764.186 1365.5 764.186 1348.84C764.186 1332.19 750.682 1318.69 734.024 1318.69C717.366 1318.69 703.862 1332.19 703.862 1348.84C703.862 1365.5 717.366 1379 734.024 1379Z" stroke="#E23E57" stroke-width="6" stroke-linecap="round" stroke-linejoin="round"/>
<path d="M906.861 1379C923.519 1379 937.023 1365.5 937.023 1348.84C937.023 1332.19 923.519 1318.69 906.861 1318.69C890.204 1318.69 876.7 1332.19 876.7 1348.84C876.7 1365.5 890.204 1379 906.861 1379Z" stroke="#E23E57" stroke-width="6" stroke-linecap="round" stroke-linejoin="round"/>
<path d="M1077.64 1379C1094.3 1379 1107.8 1365.5 1107.8 1348.84C1107.8 1332.19 1094.3 1318.69 1077.64 1318.69C1060.98 1318.69 1047.48 1332.19 1047.48 1348.84C1047.48 1365.5 1060.98 1379 1077.64 1379Z" stroke="#E23E57" stroke-width="6" stroke-linecap="round" stroke-linejoin="round"/>
<path d="M1609.43 837.804C1567.56 901.166 1488.68 935.823 1453.83 916.189C1420.14 897.185 1417.2 803.897 1459.07 740.535C1500.93 677.172 1570.9 647.577 1611.58 674.432C1652.25 701.287 1651.28 774.431 1609.43 837.804Z" fill="#EFAF00" stroke="#88304E" stroke-width="6" stroke-linecap="round" stroke-linejoin="round"/>
<path d="M1458.49 1129.66C1458.49 1129.66 1416.32 787.704 1611.27 675.982" stroke="#E23E57" stroke-width="6" stroke-linecap="round" stroke-linejoin="round"/>
<path d="M1638.88 752.297L1522.14 764.209" stroke="#E23E57" stroke-width="6" stroke-linecap="round" stroke-linejoin="round"/>
<path d="M1637.29 764.62L1514.76 777.112" stroke="#E23E57" stroke-width="6" stroke-linecap="round" stroke-linejoin="round"/>
<path d="M1460.44 741.225L1490.11 828.872" stroke="#E23E57" stroke-width="6" stroke-linecap="round" stroke-linejoin="round"/>
<path d="M1764.2 1012.47C1751.25 1045.85 1694.54 1055.01 1637.52 1032.91C1580.49 1010.82 1558.49 966.899 1561 952.326C1564.14 933.943 1631.43 902.536 1684.38 912.008C1744.56 922.77 1777.11 979.081 1764.2 1012.47Z" fill="#EFAF00" stroke="#88304E" stroke-width="6" stroke-linecap="round" stroke-linejoin="round"/>
<path d="M1423.61 1129.66C1423.61 1129.66 1418.5 979.451 1577.16 948.625C1664.03 931.742 1731.22 975.4 1762.03 1012.41" stroke="#E23E57" stroke-width="6" stroke-linecap="round" stroke-linejoin="round"/>
<path d="M1663.88 950.976L1718.06 926.151" stroke="#E23E57" stroke-width="6" stroke-linecap="round" stroke-linejoin="round"/>
<path d="M1677.4 955.277L1727.85 931.672" stroke="#E23E57" stroke-width="6" stroke-linecap="round" stroke-linejoin="round"/>
<path d="M1641.46 946.615L1662.58 1038.6" stroke="#E23E57" stroke-width="6" stroke-linecap="round" stroke-linejoin="round"/>
<path d="M1391.82 906.487C1417.57 945.345 1413.53 1000.37 1392.6 1013.17C1379.91 1020.93 1326.51 1006.89 1300.77 968.039C1275.03 929.192 1275.12 882.563 1300.05 866.019C1324.99 849.476 1366.04 867.63 1391.82 906.487Z" fill="#EFAF00" stroke="#88304E" stroke-width="6" stroke-linecap="round" stroke-linejoin="round"/>
<path d="M1404.65 1129.66C1404.65 1129.66 1419.08 935.403 1300.8 868.08" stroke="#E23E57" stroke-width="6" stroke-linecap="round" stroke-linejoin="round"/>
<path d="M1284.34 924.781H1358.98" stroke="#E23E57" stroke-width="6" stroke-linecap="round" stroke-linejoin="round"/>
<path d="M1288.1 937.684H1366.35" stroke="#E23E57" stroke-width="6" stroke-linecap="round" stroke-linejoin="round"/>
<path d="M1393.59 911.848L1380.19 965.359" stroke="#E23E57" stroke-width="6" stroke-linecap="round" stroke-linejoin="round"/>
<path d="M1539.24 1162.83V1297.92C1539.24 1302.28 1538.39 1306.6 1536.72 1310.62C1535.05 1314.65 1532.61 1318.31 1529.53 1321.39C1526.45 1324.47 1522.79 1326.91 1518.76 1328.58C1514.73 1330.24 1510.41 1331.09 1506.06 1331.09H1370.94C1366.59 1331.09 1362.27 1330.24 1358.24 1328.57C1354.22 1326.9 1350.56 1324.46 1347.48 1321.38C1344.39 1318.3 1341.95 1314.64 1340.28 1310.62C1338.62 1306.59 1337.76 1302.28 1337.76 1297.92V1162.83C1337.76 1154.03 1341.26 1145.59 1347.48 1139.37C1353.71 1133.15 1362.14 1129.66 1370.94 1129.66H1506.1C1510.45 1129.66 1514.77 1130.52 1518.79 1132.18C1522.82 1133.85 1526.48 1136.29 1529.56 1139.37C1532.64 1142.45 1535.08 1146.11 1536.75 1150.13C1538.42 1154.16 1539.28 1158.47 1539.28 1162.83H1539.24Z" fill="#F4F1ED" stroke="#E23E57" stroke-width="6" stroke-linecap="round" stroke-linejoin="round"/>
<path d="M1507.1 1129.66H1369.89C1352.15 1129.66 1337.76 1144.04 1337.76 1161.79V1298.96C1337.76 1316.71 1352.15 1331.09 1369.89 1331.09H1507.1C1524.84 1331.09 1539.23 1316.71 1539.23 1298.96V1161.79C1539.23 1144.04 1524.84 1129.66 1507.1 1129.66Z" stroke="#FFC3D5" stroke-width="6" stroke-miterlimit="10"/>
<path d="M1539.24 1162.83V1297.92C1539.24 1302.28 1538.39 1306.6 1536.72 1310.62C1535.05 1314.65 1532.61 1318.31 1529.53 1321.39C1526.45 1324.47 1522.79 1326.91 1518.76 1328.58C1514.73 1330.24 1510.41 1331.09 1506.06 1331.09H1370.94C1366.59 1331.09 1362.27 1330.24 1358.24 1328.57C1354.22 1326.9 1350.56 1324.46 1347.48 1321.38C1344.39 1318.3 1341.95 1314.64 1340.28 1310.62C1338.62 1306.59 1337.76 1302.28 1337.76 1297.92V1162.83C1337.76 1154.03 1341.26 1145.59 1347.48 1139.37C1353.71 1133.15 1362.14 1129.66 1370.94 1129.66H1506.1C1510.45 1129.66 1514.77 1130.52 1518.79 1132.18C1522.82 1133.85 1526.48 1136.29 1529.56 1139.37C1532.64 1142.45 1535.08 1146.11 1536.75 1150.13C1538.42 1154.16 1539.28 1158.47 1539.28 1162.83H1539.24Z" stroke="#E23E57" stroke-width="6" stroke-linecap="round" stroke-linejoin="round"/>
<path d="M1060.05 788.467V789.133H1057.29V788.467H1060.05ZM1058.12 793.583V787.761C1058.12 787.468 1058.19 787.224 1058.32 787.028C1058.46 786.833 1058.64 786.686 1058.86 786.588C1059.08 786.491 1059.31 786.442 1059.56 786.442C1059.75 786.442 1059.91 786.457 1060.03 786.489C1060.15 786.52 1060.24 786.548 1060.3 786.575L1060.07 787.255C1060.03 787.241 1059.98 787.225 1059.91 787.205C1059.84 787.185 1059.75 787.175 1059.64 787.175C1059.38 787.175 1059.19 787.24 1059.07 787.371C1058.96 787.502 1058.9 787.694 1058.9 787.948V793.583H1058.12ZM1062.51 793.703C1062.18 793.703 1061.89 793.642 1061.63 793.52C1061.36 793.396 1061.15 793.217 1061 792.984C1060.84 792.749 1060.76 792.464 1060.76 792.131C1060.76 791.838 1060.82 791.6 1060.94 791.418C1061.05 791.234 1061.21 791.09 1061.4 790.985C1061.59 790.881 1061.81 790.803 1062.04 790.752C1062.27 790.699 1062.51 790.657 1062.75 790.626C1063.06 790.586 1063.31 790.556 1063.5 790.536C1063.7 790.513 1063.84 790.477 1063.93 790.426C1064.02 790.375 1064.07 790.286 1064.07 790.159V790.133C1064.07 789.804 1063.98 789.549 1063.8 789.366C1063.62 789.184 1063.35 789.093 1062.99 789.093C1062.61 789.093 1062.32 789.176 1062.11 789.34C1061.89 789.504 1061.74 789.68 1061.66 789.866L1060.91 789.6C1061.04 789.289 1061.22 789.047 1061.44 788.874C1061.67 788.698 1061.91 788.576 1062.18 788.507C1062.44 788.436 1062.7 788.401 1062.96 788.401C1063.13 788.401 1063.32 788.42 1063.53 788.46C1063.74 788.498 1063.95 788.577 1064.15 788.697C1064.35 788.817 1064.52 788.998 1064.65 789.24C1064.79 789.482 1064.85 789.806 1064.85 790.213V793.583H1064.07V792.891H1064.03C1063.97 793.002 1063.89 793.12 1063.76 793.247C1063.64 793.374 1063.47 793.481 1063.27 793.57C1063.06 793.659 1062.81 793.703 1062.51 793.703ZM1062.63 792.997C1062.94 792.997 1063.2 792.936 1063.41 792.814C1063.63 792.692 1063.79 792.534 1063.9 792.341C1064.01 792.148 1064.07 791.945 1064.07 791.731V791.012C1064.03 791.052 1063.96 791.089 1063.85 791.122C1063.74 791.153 1063.61 791.181 1063.46 791.205C1063.32 791.227 1063.18 791.247 1063.04 791.265C1062.9 791.281 1062.79 791.294 1062.71 791.305C1062.5 791.332 1062.31 791.375 1062.14 791.435C1061.96 791.493 1061.82 791.58 1061.71 791.698C1061.6 791.814 1061.55 791.971 1061.55 792.171C1061.55 792.444 1061.65 792.651 1061.85 792.791C1062.06 792.928 1062.32 792.997 1062.63 792.997ZM1068.57 788.467V789.133H1065.81V788.467H1068.57ZM1066.64 793.583V787.761C1066.64 787.468 1066.7 787.224 1066.84 787.028C1066.98 786.833 1067.16 786.686 1067.38 786.588C1067.6 786.491 1067.83 786.442 1068.07 786.442C1068.27 786.442 1068.42 786.457 1068.55 786.489C1068.67 786.52 1068.76 786.548 1068.82 786.575L1068.59 787.255C1068.55 787.241 1068.5 787.225 1068.43 787.205C1068.36 787.185 1068.27 787.175 1068.15 787.175C1067.89 787.175 1067.71 787.24 1067.59 787.371C1067.48 787.502 1067.42 787.694 1067.42 787.948V793.583H1066.64ZM1071.83 786.668C1072.11 786.671 1072.39 786.724 1072.67 786.828C1072.95 786.933 1073.2 787.106 1073.43 787.348C1073.66 787.588 1073.85 787.915 1073.99 788.331C1074.13 788.746 1074.2 789.267 1074.2 789.893C1074.2 790.499 1074.14 791.038 1074.03 791.508C1073.91 791.977 1073.75 792.372 1073.53 792.694C1073.32 793.016 1073.06 793.26 1072.75 793.427C1072.45 793.593 1072.1 793.677 1071.72 793.677C1071.34 793.677 1071 793.601 1070.7 793.45C1070.4 793.297 1070.16 793.085 1069.97 792.814C1069.78 792.541 1069.66 792.224 1069.6 791.865H1070.41C1070.49 792.178 1070.63 792.437 1070.85 792.641C1071.07 792.843 1071.36 792.944 1071.72 792.944C1072.25 792.944 1072.66 792.714 1072.97 792.254C1073.27 791.795 1073.43 791.145 1073.43 790.306H1073.37C1073.25 790.492 1073.1 790.653 1072.93 790.789C1072.76 790.924 1072.57 791.029 1072.36 791.102C1072.15 791.175 1071.93 791.212 1071.69 791.212C1071.3 791.212 1070.94 791.115 1070.62 790.922C1070.29 790.727 1070.03 790.459 1069.84 790.119C1069.65 789.777 1069.55 789.386 1069.55 788.947C1069.55 788.529 1069.64 788.147 1069.83 787.801C1070.02 787.452 1070.28 787.175 1070.62 786.968C1070.96 786.762 1071.37 786.662 1071.83 786.668ZM1071.83 787.401C1071.55 787.401 1071.3 787.471 1071.07 787.611C1070.85 787.749 1070.67 787.935 1070.54 788.171C1070.41 788.404 1070.35 788.663 1070.35 788.947C1070.35 789.231 1070.41 789.49 1070.53 789.723C1070.66 789.954 1070.83 790.138 1071.05 790.276C1071.27 790.411 1071.52 790.479 1071.8 790.479C1072.01 790.479 1072.21 790.438 1072.39 790.356C1072.57 790.271 1072.73 790.157 1072.87 790.013C1073 789.866 1073.11 789.701 1073.19 789.516C1073.27 789.33 1073.31 789.136 1073.31 788.933C1073.31 788.667 1073.24 788.417 1073.11 788.184C1072.99 787.951 1072.81 787.762 1072.59 787.618C1072.36 787.473 1072.11 787.401 1071.83 787.401ZM1077.8 788.467V789.133H1075.04V788.467H1077.8ZM1075.87 793.583V787.761C1075.87 787.468 1075.94 787.224 1076.08 787.028C1076.21 786.833 1076.39 786.686 1076.61 786.588C1076.83 786.491 1077.06 786.442 1077.31 786.442C1077.5 786.442 1077.66 786.457 1077.78 786.489C1077.9 786.52 1077.99 786.548 1078.05 786.575L1077.83 787.255C1077.79 787.241 1077.73 787.225 1077.66 787.205C1077.59 787.185 1077.5 787.175 1077.39 787.175C1077.13 787.175 1076.94 787.24 1076.82 787.371C1076.71 787.502 1076.65 787.694 1076.65 787.948V793.583H1075.87ZM1079.1 793.583L1082.15 787.548V787.494H1078.64V786.762H1083.01V787.534L1079.97 793.583H1079.1Z" fill="#88304E"/>
<path d="M428.285 424.393C496.679 424.393 552.124 368.959 552.124 300.578C552.124 232.198 496.679 176.764 428.285 176.764C359.891 176.764 304.447 232.198 304.447 300.578C304.447 368.959 359.891 424.393 428.285 424.393Z" fill="#311D3F"/>
<path d="M428.285 408.76C496.679 408.76 552.124 353.326 552.124 284.946C552.124 216.565 496.679 161.131 428.285 161.131C359.891 161.131 304.447 216.565 304.447 284.946C304.447 353.326 359.891 408.76 428.285 408.76Z" fill="#F4F1ED" stroke="#E23E57" stroke-width="6" stroke-linecap="round" stroke-linejoin="round"/>
<path d="M395.012 321.683H479.125L495.962 267.222H378.236L395.012 321.683Z" fill="#FFBF00"/>
<path d="M336.01 242.357H353.787C356.435 242.354 359.015 243.198 361.15 244.765C363.284 246.333 364.862 248.542 365.651 251.069L386.84 319.593H472.473L476.694 336.766C477.012 338.051 477.032 339.391 476.755 340.686C476.477 341.98 475.909 343.194 475.092 344.236C474.275 345.277 473.233 346.12 472.042 346.699C470.852 347.278 469.545 347.579 468.221 347.578H390.411" stroke="#E23E57" stroke-width="6" stroke-linecap="round" stroke-linejoin="round"/>
<path d="M386.769 319.623H472.212L489.909 262.412H369.142L386.769 319.623Z" stroke="#E23E57" stroke-width="6" stroke-linecap="round" stroke-linejoin="round"/>
<path d="M440.8 319.623L458.497 262.412" stroke="#E23E57" stroke-width="6" stroke-linecap="round" stroke-linejoin="round"/>
<path d="M421.723 319.623L404.026 262.412" stroke="#E23E57" stroke-width="6" stroke-linecap="round" stroke-linejoin="round"/>
<path d="M377.416 289.156H481.636" stroke="#E23E57" stroke-width="6" stroke-linecap="round" stroke-linejoin="round"/>
<path d="M400.485 371.473C405.258 371.473 409.128 367.604 409.128 362.831C409.128 358.058 405.258 354.189 400.485 354.189C395.711 354.189 391.841 358.058 391.841 362.831C391.841 367.604 395.711 371.473 400.485 371.473Z" stroke="#E23E57" stroke-width="6" stroke-linecap="round" stroke-linejoin="round"/>
<path d="M463.309 371.473C468.083 371.473 471.953 367.604 471.953 362.831C471.953 358.058 468.083 354.189 463.309 354.189C458.536 354.189 454.666 358.058 454.666 362.831C454.666 367.604 458.536 371.473 463.309 371.473Z" stroke="#E23E57" stroke-width="6" stroke-linecap="round" stroke-linejoin="round"/>
<path d="M429.356 196.989V241.207" stroke="#E23E57" stroke-width="6" stroke-linecap="round" stroke-linejoin="round"/>
<path d="M407.768 222.124L429.156 243.508L449.414 223.254" stroke="#E23E57" stroke-width="6" stroke-linecap="round" stroke-linejoin="round"/>
</svg>
