<svg width="1782" height="1421" viewBox="0 0 1782 1421" fill="none" xmlns="http://www.w3.org/2000/svg">
<path d="M23.2086 969.38C115.579 1006.74 175.679 1057 214.679 1107.59L208.189 1164.31L232.519 1132.91C293.199 1227.52 272.839 1317.27 272.839 1317.27L249.649 1317.13C134.999 1316.45 37.4985 1232.29 21.2585 1118.8C21.0785 1117.6 20.9185 1116.4 20.7585 1115.2L63.2686 1109.63L17.7686 1085.07C13.5286 1020.78 23.2086 969.38 23.2086 969.38Z" fill="#1C0E0C"/>
<path d="M9.48854 971.84C101.869 1009.2 161.959 1059.46 200.999 1110.1L194.519 1166.81L218.839 1135.41C279.529 1230.02 272.729 1318.64 272.729 1318.64L237.089 1318.75C122.149 1319.13 23.8685 1235.09 7.57854 1121.31C7.40854 1120.1 7.23854 1118.9 7.07854 1117.7L49.5986 1112.13L4.08855 1087.59C-0.181453 1023.24 9.48854 971.84 9.48854 971.84Z" fill="#EFAF00" stroke="black" stroke-width="6" stroke-linecap="round" stroke-linejoin="round"/>
<path d="M8.60855 1128.09L154.829 1201.01" stroke="#070707" stroke-width="6" stroke-linecap="round" stroke-linejoin="round"/>
<path d="M104.539 1135.29L101.019 1019.07" stroke="#070707" stroke-width="6" stroke-linecap="round" stroke-linejoin="round"/>
<path d="M9.48856 971.84C9.48856 971.84 97.7385 1177.62 272.729 1318.64" stroke="#070707" stroke-width="6" stroke-linecap="round" stroke-linejoin="round"/>
<path d="M1778.75 457.59C1778.75 457.59 1718.54 455.73 1745.1 555.79C1771.66 655.85 1660.48 645.99 1640.61 693.73C1629.99 719.26 1685.82 844.54 1590.18 888.85C1511.56 925.28 1426.85 962.93 1405.33 1044.77L1381.18 839.59C1381.18 839.59 1362.73 746.59 1445.8 725.46C1570.35 693.73 1503.8 617.55 1537.89 573.15C1575.34 524.45 1633.72 556.29 1657.62 525.53C1675.15 503.01 1698.84 418.22 1778.75 457.59Z" fill="#EFAF00" stroke="black" stroke-width="6" stroke-linecap="round" stroke-linejoin="round"/>
<path d="M1778.56 457.59C1777.33 457.6 1776.11 457.686 1774.9 457.85C1765.74 457.08 1740.95 456.42 1725.31 469.52C1716.46 476.94 1711.8 487.74 1711.47 501.62C1710.78 530.56 1708.6 549.98 1699.47 563.62C1690.06 577.73 1673.65 585.19 1644.58 588.57C1616.58 591.82 1595.58 602.27 1583.58 618.78C1572.58 633.97 1569.39 654.36 1574.24 677.78C1578.59 698.78 1581.09 729.78 1568.31 758.63C1554.37 790.05 1525.6 811.93 1482.79 823.63C1459.61 829.98 1440.42 839.57 1425.79 852.13C1414.4 861.764 1405.4 873.9 1399.48 887.59C1389.63 910.52 1392.09 930.23 1392.12 930.43H1391.87L1389.23 908.02C1390.56 900.439 1392.77 893.039 1395.81 885.97C1401.98 871.734 1411.35 859.119 1423.21 849.11C1438.33 836.17 1458.04 826.3 1481.8 819.8C1578.85 793.22 1578.96 719.93 1570.39 678.6C1565.31 654.09 1568.77 632.6 1580.39 616.48C1592.98 599.03 1615.03 588.02 1644.13 584.63C1671.92 581.4 1687.47 574.46 1696.13 561.43C1704.67 548.61 1706.73 529.77 1707.41 501.56C1707.77 486.48 1712.91 474.67 1722.69 466.49C1728.69 461.49 1739.88 455.14 1758.82 453.78C1762.4 453.525 1765.98 453.452 1769.57 453.56C1772.53 454.71 1775.5 456.03 1778.56 457.59Z" fill="#070707"/>
<path d="M252.329 1004.38C252.329 1004.38 126.589 1010.38 108.849 892.01C92.4985 782.95 169.979 747.35 115.519 706.17C61.0586 664.99 28.0286 633 53.0886 579.99C76.0886 531.28 62.3886 500.29 27.8486 509.59C27.8486 509.59 67.8486 456.1 123.929 499.16C176.179 539.25 116.069 613.61 185.029 614.52C252.329 615.41 302.809 640.04 292.789 720.52C288.949 751.28 266.589 794.61 303.029 840.78C354.039 905.42 252.329 1004.38 252.329 1004.38Z" stroke="#070707" stroke-width="6" stroke-linecap="round" stroke-linejoin="round"/>
<path d="M26.5186 508.25C26.5186 508.25 127.469 462.44 106.219 574.72C87.4085 674.1 188.019 631.13 215.139 715.41C240.379 793.84 187.749 926.87 293.389 952.73" stroke="#070707" stroke-width="6" stroke-linecap="round" stroke-linejoin="round"/>
<path d="M1741.37 921.42C1714.75 1017.42 1671.65 1082.85 1625.77 1127.42H1568.68L1602.68 1148.02C1515.58 1219.02 1424.1 1209.02 1424.1 1209.02L1411.37 1091.52C1439.44 997.15 1521.14 954.52 1596.21 935.61L1606.58 977.22L1625.8 929.22C1689.21 917.65 1741.37 921.42 1741.37 921.42Z" fill="#1C0E0C"/>
<path d="M1737.37 908.07C1710.75 1004.07 1667.64 1069.51 1621.77 1114.07H1564.68L1598.68 1134.68C1511.58 1205.68 1422.76 1209.03 1422.76 1209.03L1407.36 1078.19C1435.44 983.82 1517.13 941.24 1592.21 922.27L1602.57 963.88L1621.8 915.88C1685.2 904.3 1737.37 908.07 1737.37 908.07Z" fill="#F4F1ED" stroke="#070707" stroke-width="6" stroke-linecap="round" stroke-linejoin="round"/>
<path d="M1417.33 1163.1L1737.37 908.07" stroke="#070707" stroke-width="6" stroke-linecap="round" stroke-linejoin="round"/>
<path d="M1582.03 924.95L1525.97 1076.52" stroke="#070707" stroke-width="6" stroke-linecap="round" stroke-linejoin="round"/>
<path d="M1605.06 1013.5L1700.85 1004.38" stroke="#070707" stroke-width="6" stroke-linecap="round" stroke-linejoin="round"/>
<path d="M1433.81 1149.19L1598.65 1134.66" stroke="#070707" stroke-width="6" stroke-linecap="round" stroke-linejoin="round"/>
<path d="M181.659 191.34H542.209V16.01H181.659L228.369 103.68L181.659 191.34Z" fill="#1C0E0C"/>
<path d="M192.999 179.33H553.559V4H192.999L239.709 91.67L192.999 179.33Z" fill="#F4F1ED" stroke="#070707" stroke-width="6" stroke-linecap="round" stroke-linejoin="round"/>
<path d="M553.549 4V718.93" stroke="#070707" stroke-width="8" stroke-linecap="round" stroke-linejoin="round"/>
<path d="M1288.62 258.59L1176.76 1209.01H555.009L666.859 258.59H1288.62Z" fill="#94B49F"/>
<path d="M1422.73 1209.01H1155.18L1268.6 245.24H1309.31L1422.73 1209.01Z" stroke="#070707" stroke-width="6" stroke-linecap="round" stroke-linejoin="round"/>
<path d="M1268.6 245.24L1155.18 1209.01H533.419L646.849 245.24H1268.6Z" stroke="#070707" stroke-width="6" stroke-linecap="round" stroke-linejoin="round"/>
<path d="M1022.68 61.95C1049.17 61.95 1074.57 72.473 1093.3 91.2041C1112.04 109.935 1122.56 135.34 1122.56 161.83V245.24H922.769V161.83C922.769 148.711 925.353 135.721 930.374 123.601C935.396 111.481 942.755 100.469 952.033 91.1935C961.311 81.9184 972.325 74.5619 984.447 69.5443C996.568 64.5266 1009.56 61.946 1022.68 61.95Z" fill="#F4F1ED" stroke="#070707" stroke-width="6" stroke-linecap="round" stroke-linejoin="round"/>
<path d="M955.259 61.95C981.748 61.95 1007.15 72.473 1025.88 91.2041C1044.62 109.935 1055.14 135.34 1055.14 161.83V245.24H855.379V161.83C855.379 135.34 865.902 109.935 884.633 91.2041C903.364 72.473 928.769 61.95 955.259 61.95V61.95Z" stroke="#070707" stroke-width="6" stroke-linecap="round" stroke-linejoin="round"/>
<path d="M1189.24 539.48H1098.17L1109.77 406.83C1111.97 381.68 1134.14 361.29 1159.3 361.29C1184.45 361.29 1203.05 381.68 1200.85 406.83L1189.24 539.48Z" fill="white"/>
<path d="M1181.24 531.47H1090.16L1101.77 398.82C1103.97 373.67 1126.14 353.28 1151.29 353.28C1176.44 353.28 1195.04 373.67 1192.84 398.82L1181.24 531.47Z" stroke="#070707" stroke-width="6" stroke-linecap="round" stroke-linejoin="round"/>
<path d="M1154.53 397.071C1158.62 393.148 1159.03 386.925 1155.44 383.171C1151.84 379.417 1145.61 379.554 1141.51 383.476C1137.41 387.398 1137.01 393.621 1140.6 397.375C1144.19 401.129 1150.43 400.993 1154.53 397.071Z" stroke="#070707" stroke-width="6" stroke-linecap="round" stroke-linejoin="round"/>
<path d="M1148.37 386.64L1161.37 238.39C1161.81 233.361 1164.11 228.68 1167.84 225.269C1171.56 221.859 1176.42 219.968 1181.47 219.97C1184.12 219.968 1186.74 220.489 1189.19 221.502C1191.64 222.515 1193.86 224.001 1195.74 225.874C1197.61 227.747 1199.1 229.971 1200.11 232.419C1201.13 234.866 1201.65 237.49 1201.65 240.14V245.25" stroke="#070707" stroke-width="6" stroke-linecap="round" stroke-linejoin="round"/>
<path d="M1142.35 483.59C1144.67 483.224 1146.82 482.156 1148.52 480.53C1149.98 479.103 1150.89 477.198 1151.07 475.16C1151.22 474.247 1151.15 473.313 1150.87 472.43C1150.6 471.547 1150.13 470.739 1149.49 470.07C1147.84 468.664 1145.89 467.64 1143.8 467.07L1139.12 465.67C1136.28 464.913 1133.54 463.864 1130.92 462.54C1128.79 461.431 1127.02 459.734 1125.82 457.65C1124.52 455.136 1124.03 452.282 1124.42 449.48C1124.67 445.403 1126.49 441.581 1129.49 438.81C1132.5 436.03 1136.63 434.416 1141.89 433.97H1146.69C1149.03 434.159 1151.32 434.719 1153.49 435.63C1155.36 436.468 1156.98 437.769 1158.21 439.41C1159.18 440.612 1159.95 441.962 1160.49 443.41C1160.96 444.597 1161.17 445.874 1161.09 447.15C1160.97 448.414 1160.38 449.586 1159.42 450.42C1158.48 451.311 1157.24 451.805 1155.95 451.8C1153.48 451.8 1151.95 450.47 1151.5 447.8C1151.29 446.336 1150.67 444.964 1149.69 443.849C1148.72 442.734 1147.45 441.925 1146.03 441.52L1141.24 441.37C1139.37 441.856 1137.61 442.706 1136.07 443.87C1135.4 444.457 1134.86 445.177 1134.48 445.984C1134.1 446.792 1133.9 447.669 1133.88 448.56C1133.74 449.36 1133.78 450.182 1134 450.964C1134.22 451.746 1134.61 452.469 1135.15 453.08C1136.55 454.328 1138.19 455.275 1139.98 455.86L1144.66 457.26C1147.71 458.12 1150.13 458.903 1151.92 459.61C1153.7 460.261 1155.32 461.276 1156.68 462.59C1158.12 463.981 1159.21 465.695 1159.86 467.59C1160.54 469.629 1160.78 471.79 1160.57 473.93C1160.32 476.803 1159.38 479.574 1157.84 482.01C1156.22 484.565 1153.98 486.675 1151.34 488.15C1148.39 489.797 1145.12 490.767 1141.75 490.99L1136.94 491.07C1134.32 490.821 1131.76 490.118 1129.39 488.99C1127.41 488.024 1125.64 486.663 1124.21 484.99C1122.95 483.552 1121.98 481.88 1121.37 480.07C1120.82 478.463 1120.61 476.761 1120.75 475.07C1120.88 473.803 1121.49 472.634 1122.45 471.8C1123.43 470.848 1124.75 470.324 1126.12 470.34C1127.11 470.3 1128.09 470.581 1128.92 471.14C1129.66 471.672 1130.18 472.471 1130.35 473.37C1130.72 474.978 1131.17 476.563 1131.72 478.12C1132.15 479.258 1132.83 480.283 1133.72 481.12C1134.83 482.116 1136.16 482.829 1137.61 483.2L1142.35 483.59Z" fill="#1C0E0C"/>
<path d="M1138.85 496.59H1138.68C1138.42 496.567 1138.16 496.493 1137.93 496.372C1137.69 496.25 1137.49 496.084 1137.32 495.882C1137.15 495.681 1137.02 495.448 1136.94 495.197C1136.86 494.946 1136.84 494.682 1136.86 494.42L1142.59 428.89C1142.61 428.627 1142.69 428.372 1142.81 428.138C1142.93 427.904 1143.1 427.696 1143.3 427.527C1143.5 427.357 1143.73 427.229 1143.98 427.15C1144.24 427.071 1144.5 427.042 1144.76 427.065C1145.03 427.088 1145.28 427.162 1145.52 427.284C1145.75 427.406 1145.96 427.572 1146.13 427.774C1146.3 427.976 1146.42 428.21 1146.5 428.461C1146.58 428.713 1146.61 428.977 1146.59 429.24L1140.86 494.77C1140.81 495.27 1140.58 495.735 1140.21 496.072C1139.84 496.41 1139.35 496.594 1138.85 496.59Z" fill="#1C0E0C"/>
<path d="M522.219 721.46H449.619C449.619 721.46 379.869 659.69 349.389 623.26C345.228 618.251 341.425 612.954 338.009 607.41C323.869 584.48 340.209 554.91 367.149 554.76H367.929C441.619 554.76 522.259 688.25 522.219 721.46Z" fill="#1C0E0C"/>
<path d="M562.249 721.46H511.169C511.169 721.46 462.109 678.01 440.679 652.37C437.749 648.849 435.076 645.123 432.679 641.22C430.424 637.554 429.184 633.355 429.086 629.052C428.988 624.749 430.036 620.497 432.121 616.732C434.207 612.968 437.256 609.825 440.957 607.626C444.657 605.428 448.875 604.252 453.179 604.22H453.679C505.539 604.18 562.279 698.1 562.249 721.46Z" fill="#F4F1ED"/>
<path d="M410.399 485.02C532.599 483.74 575.108 658.37 572.398 721.46H522.219C522.219 688.25 441.619 554.76 367.929 554.76C341.789 554.76 326.389 578.05 334.269 599.14C334.269 599.14 283.619 486.35 410.399 485.02Z" fill="#EFAF00" stroke="black" stroke-width="6" stroke-linecap="round" stroke-linejoin="round"/>
<path d="M879.868 691.95C890.118 667.39 876.319 639.09 850.759 631.38C732.239 595.63 611.059 721.46 611.059 721.46H533.419C533.419 721.46 643.519 538.15 826.819 565.4C866.949 571.36 919.679 610.01 879.868 691.95Z" fill="#EFAF00" stroke="black" stroke-width="6" stroke-linecap="round" stroke-linejoin="round"/>
<path d="M879.679 692.37C874.169 705.25 867.429 717.31 862.679 721.46H795.289C795.289 721.46 811.429 716 827.009 692.37C845.939 663.68 837.179 628.17 811.229 625.74C824.549 626.15 837.809 627.47 850.789 631.38C876.459 639.14 890.279 667.71 879.679 692.37Z" fill="#1C0E0C"/>
<path d="M934.079 719.46H389.679C365.781 719.46 346.409 738.833 346.409 762.73V1307.13C346.409 1331.03 365.781 1350.4 389.679 1350.4H934.079C957.976 1350.4 977.349 1331.03 977.349 1307.13V762.73C977.349 738.833 957.976 719.46 934.079 719.46Z" fill="#EFAF00" stroke="black" stroke-width="6" stroke-linecap="round" stroke-linejoin="round"/>
<path d="M822.959 719.46H295.599C271.701 719.46 252.329 738.833 252.329 762.73V1307.13C252.329 1331.03 271.701 1350.4 295.599 1350.4H822.959C846.856 1350.4 866.229 1331.03 866.229 1307.13V762.73C866.229 738.833 846.856 719.46 822.959 719.46Z" fill="#F4F1ED" stroke="#070707" stroke-width="6" stroke-linecap="round" stroke-linejoin="round"/>
<path d="M514.319 796.05C508.81 790.539 501.791 786.785 494.15 785.264C486.508 783.743 478.586 784.522 471.387 787.503C464.188 790.484 458.035 795.534 453.707 802.012C449.378 808.491 447.068 816.108 447.069 823.9V938.66H525.859V823.9C525.866 818.726 524.85 813.602 522.87 808.823C520.889 804.043 517.983 799.702 514.319 796.05V796.05ZM486.469 825.05C484.785 825.052 483.139 824.555 481.738 823.621C480.337 822.687 479.245 821.358 478.599 819.804C477.954 818.249 477.784 816.537 478.111 814.886C478.438 813.234 479.248 811.717 480.438 810.526C481.627 809.335 483.144 808.523 484.795 808.194C486.446 807.865 488.157 808.033 489.713 808.677C491.268 809.321 492.598 810.411 493.534 811.811C494.469 813.211 494.969 814.856 494.969 816.54C494.971 817.658 494.753 818.766 494.327 819.8C493.902 820.835 493.276 821.775 492.487 822.567C491.697 823.359 490.759 823.988 489.727 824.417C488.694 824.847 487.587 825.069 486.469 825.07V825.05Z" fill="#F4F1ED"/>
<path d="M508.979 788.71C503.469 783.197 496.447 779.443 488.802 777.923C481.158 776.402 473.234 777.184 466.033 780.169C458.833 783.154 452.681 788.208 448.354 794.691C444.028 801.175 441.722 808.796 441.729 816.59V931.35H520.519V816.59C520.53 811.411 519.516 806.282 517.536 801.497C515.555 796.712 512.647 792.366 508.979 788.71ZM481.129 817.71C479.447 817.71 477.804 817.212 476.406 816.278C475.008 815.344 473.919 814.016 473.276 812.463C472.632 810.91 472.464 809.201 472.792 807.552C473.12 805.903 473.929 804.389 475.118 803.2C476.307 802.011 477.821 801.201 479.47 800.874C481.119 800.546 482.828 800.714 484.381 801.357C485.935 802.001 487.262 803.09 488.196 804.488C489.13 805.886 489.629 807.529 489.629 809.21C489.63 810.328 489.411 811.435 488.985 812.468C488.558 813.501 487.932 814.439 487.143 815.231C486.354 816.022 485.416 816.65 484.384 817.079C483.352 817.507 482.246 817.729 481.129 817.73V817.71Z" stroke="#070707" stroke-width="6" stroke-linecap="round" stroke-linejoin="round"/>
<path d="M481.129 806.02V717.49C481.127 714.903 481.636 712.342 482.624 709.952C483.613 707.562 485.064 705.39 486.892 703.561C488.721 701.731 490.892 700.28 493.281 699.29C495.671 698.3 498.232 697.79 500.819 697.79V697.79C506.043 697.79 511.054 699.866 514.749 703.56C518.443 707.254 520.519 712.265 520.519 717.49V719.49" stroke="#070707" stroke-width="6" stroke-linecap="round" stroke-linejoin="round"/>
<path d="M497.139 876C496.429 874.354 495.363 872.886 494.019 871.7C492.764 870.552 491.306 869.65 489.719 869.04C488.109 868.43 485.949 867.76 483.249 867.04H483.059V853.4H483.249C484.52 853.76 485.673 854.453 486.587 855.408C487.501 856.363 488.144 857.544 488.449 858.83C489.089 861.15 490.449 862.3 492.609 862.3C493.147 862.308 493.682 862.206 494.18 862.001C494.678 861.797 495.13 861.494 495.509 861.11C495.889 860.744 496.19 860.304 496.395 859.818C496.599 859.331 496.703 858.808 496.699 858.28C496.663 857.156 496.39 856.052 495.899 855.04C495.329 853.789 494.582 852.627 493.679 851.59C492.49 850.178 490.991 849.059 489.299 848.32C487.384 847.538 485.36 847.052 483.299 846.88H483.109V842.73C483.109 842.2 482.898 841.691 482.523 841.316C482.148 840.941 481.639 840.73 481.109 840.73C480.578 840.73 480.069 840.941 479.694 841.316C479.319 841.691 479.109 842.2 479.109 842.73V846.89C474.609 847.284 471.169 848.677 468.789 851.07C467.594 852.284 466.66 853.729 466.043 855.316C465.426 856.903 465.138 858.599 465.199 860.3C465.091 862.785 465.732 865.245 467.039 867.36C468.228 869.173 469.877 870.636 471.819 871.6C474.155 872.735 476.597 873.64 479.109 874.3V889.51C477.827 889.187 476.637 888.575 475.629 887.72C474.787 887.003 474.106 886.118 473.629 885.12C473.042 883.779 472.528 882.407 472.089 881.01C471.858 880.222 471.359 879.54 470.679 879.08C469.938 878.603 469.069 878.362 468.189 878.39C467.62 878.376 467.055 878.48 466.53 878.697C466.005 878.914 465.531 879.239 465.139 879.65C464.756 880.017 464.451 880.456 464.24 880.942C464.029 881.428 463.916 881.951 463.909 882.48C463.921 883.973 464.231 885.448 464.819 886.82C465.506 888.395 466.464 889.837 467.649 891.08C469.015 892.505 470.636 893.662 472.429 894.49C474.533 895.457 476.784 896.065 479.089 896.29V899.42C479.089 899.951 479.299 900.46 479.674 900.835C480.049 901.21 480.558 901.42 481.089 901.42C481.619 901.42 482.128 901.21 482.503 900.835C482.878 900.46 483.089 899.951 483.089 899.42V896.23H483.279C486.127 896.054 488.895 895.211 491.359 893.771C493.532 892.502 495.317 890.662 496.519 888.45C497.685 886.303 498.287 883.894 498.269 881.45C498.273 879.575 497.888 877.719 497.139 876V876ZM474.679 863.4C473.725 862.281 473.209 860.853 473.227 859.382C473.246 857.911 473.797 856.496 474.779 855.4C476.024 854.387 477.474 853.654 479.029 853.25V865.79C477.438 865.281 475.962 864.469 474.679 863.4V863.4ZM488.319 887.2C486.955 888.621 485.164 889.556 483.219 889.86H483.029V875.48H483.219C485.101 875.997 486.858 876.896 488.379 878.12C488.974 878.682 489.439 879.366 489.741 880.126C490.044 880.887 490.176 881.704 490.129 882.52C490.163 884.252 489.525 885.93 488.349 887.2H488.319Z" fill="#1C0E0C"/>
<path d="M214.079 561.5C231.52 561.5 245.659 547.361 245.659 529.92C245.659 512.479 231.52 498.34 214.079 498.34C196.637 498.34 182.499 512.479 182.499 529.92C182.499 547.361 196.637 561.5 214.079 561.5Z" fill="#F4F1ED" stroke="#070707" stroke-width="6" stroke-linecap="round" stroke-linejoin="round"/>
<path d="M1382.1 1336.28C1399.54 1336.28 1413.68 1322.14 1413.68 1304.7C1413.68 1287.26 1399.54 1273.12 1382.1 1273.12C1364.66 1273.12 1350.52 1287.26 1350.52 1304.7C1350.52 1322.14 1364.66 1336.28 1382.1 1336.28Z" fill="#F4F1ED" stroke="#070707" stroke-width="6" stroke-linecap="round" stroke-linejoin="round"/>
<path d="M1479.32 658.7C1486.69 658.7 1492.66 652.728 1492.66 645.36C1492.66 637.993 1486.69 632.02 1479.32 632.02C1471.95 632.02 1465.98 637.993 1465.98 645.36C1465.98 652.728 1471.95 658.7 1479.32 658.7Z" fill="#F4F1ED" stroke="#070707" stroke-width="6" stroke-linecap="round" stroke-linejoin="round"/>
<path d="M1427.14 1362.41C1432.67 1362.41 1437.15 1357.93 1437.15 1352.4C1437.15 1346.87 1432.67 1342.39 1427.14 1342.39C1421.61 1342.39 1417.13 1346.87 1417.13 1352.4C1417.13 1357.93 1421.61 1362.41 1427.14 1362.41Z" fill="#F4F1ED" stroke="#070707" stroke-width="6" stroke-linecap="round" stroke-linejoin="round"/>
<path d="M207.579 1048.24C213.107 1048.24 217.589 1043.76 217.589 1038.23C217.589 1032.7 213.107 1028.22 207.579 1028.22C202.05 1028.22 197.569 1032.7 197.569 1038.23C197.569 1043.76 202.05 1048.24 207.579 1048.24Z" fill="#94B49F"/>
<path d="M1293.13 1191.47H612.679V1417.92H1293.13V1191.47Z" fill="#F4F1ED" stroke="#070707" stroke-width="6" stroke-linecap="round" stroke-linejoin="round"/>
<path d="M1165.78 1191.47H529.379V1417.92H1165.78V1191.47Z" fill="#F4F1ED" stroke="#070707" stroke-width="6" stroke-linecap="round" stroke-linejoin="round"/>
<path d="M1295.38 1126.65H527.639V1206.82H1295.38V1126.65Z" fill="#1C0E0C"/>
<path d="M1321.38 1111.3H584.429V1191.47H1321.38V1111.3Z" fill="#F4F1ED" stroke="#070707" stroke-width="6" stroke-linecap="round" stroke-linejoin="round"/>
<path d="M1192.19 1111.3H502.949V1191.47H1192.19V1111.3Z" fill="#F4F1ED" stroke="#070707" stroke-width="6" stroke-linecap="round" stroke-linejoin="round"/>
<path d="M1213.03 1051.02C1212.56 1056.52 1202.65 1082.74 1202.65 1082.74L696.219 1065.59V1037.32C696.219 989.94 712.319 949.02 720.849 931.25C733.999 903.81 752.209 910.65 752.209 910.65C752.209 910.65 801.739 959.06 857.289 959.06C867.999 959.06 875.679 953.39 881.149 945.14C884.43 940.025 886.984 934.478 888.739 928.66C891.052 921.085 892.679 913.317 893.599 905.45C894.013 902.12 895.224 898.939 897.129 896.177C899.035 893.415 901.578 891.153 904.543 889.583C907.509 888.013 910.809 887.181 914.165 887.158C917.52 887.135 920.832 887.921 923.819 889.45C945.629 900.66 972.109 925.75 1042.98 964.05C1046.54 965.983 1050.21 967.94 1053.98 969.92C1140.24 1015.26 1212.11 998.38 1213.03 1051.02Z" fill="#F4F1ED" stroke="#070707" stroke-width="6" stroke-linecap="round" stroke-linejoin="round"/>
<path d="M1156.08 1107.79C1170.75 1107.79 1188.63 1101.15 1198.24 1090.41C1207.85 1079.67 1215.92 1060.07 1211.41 1039.01H1211.01C1206.17 1065.01 1182.85 1077.76 1165.31 1077.76L726.249 1064.88C712.629 1064.88 700.979 1055.48 696.249 1042.17V1071.66C696.249 1091.66 710.719 1107.79 728.579 1107.79H1156.08Z" fill="#F4F1ED" stroke="#070707" stroke-width="6" stroke-linecap="round" stroke-linejoin="round"/>
<path d="M881.159 945.14C877.309 960.51 852.349 976.88 779.929 955.4C719.619 937.51 696.219 1012.67 696.219 1042.17V1037.31C696.219 989.93 712.319 949.01 720.849 931.24C733.999 903.8 752.209 910.64 752.209 910.64C752.209 910.64 801.739 959.05 857.289 959.05C867.999 959.05 875.679 953.38 881.149 945.13L881.159 945.14Z" fill="#B4CFB0" stroke="black" stroke-width="6" stroke-linecap="round" stroke-linejoin="round"/>
<path d="M1062.27 974.14C952.589 936.63 897.699 919.65 888.739 928.65C891.052 921.075 892.679 913.307 893.599 905.44C894.013 902.11 895.224 898.929 897.129 896.167C899.035 893.405 901.578 891.143 904.543 889.573C907.509 888.003 910.809 887.171 914.165 887.148C917.52 887.125 920.832 887.911 923.819 889.44C945.679 900.69 982.089 934.03 1062.27 974.14Z" fill="#F4F1ED" stroke="#070707" stroke-width="6" stroke-linecap="round" stroke-linejoin="round"/>
<path d="M950.279 936.65L964.499 915.03C965.328 913.767 966.406 912.685 967.667 911.851C968.928 911.018 970.345 910.45 971.832 910.181C973.32 909.913 974.846 909.95 976.319 910.29C977.792 910.63 979.18 911.266 980.399 912.16V912.16C982.584 913.756 984.113 916.093 984.7 918.734C985.287 921.375 984.892 924.139 983.589 926.51L981.699 929.97" stroke="#070707" stroke-width="6" stroke-linecap="round" stroke-linejoin="round"/>
<path d="M982.889 946.09L992.959 930.31C993.683 929.206 994.624 928.261 995.726 927.532C996.827 926.803 998.065 926.306 999.364 926.072C1000.66 925.837 1002 925.869 1003.28 926.166C1004.57 926.463 1005.78 927.019 1006.85 927.8V927.8C1008.76 929.196 1010.09 931.239 1010.6 933.546C1011.11 935.854 1010.77 938.269 1009.63 940.34L1007.97 943.34" stroke="#070707" stroke-width="6" stroke-linecap="round" stroke-linejoin="round"/>
<path d="M1032.91 958.36C1034.11 956.168 1034.48 953.613 1033.93 951.172C1033.39 948.731 1031.98 946.569 1029.97 945.09V945.09C1028.84 944.265 1027.56 943.679 1026.2 943.365C1024.83 943.052 1023.42 943.019 1022.05 943.268C1020.67 943.517 1019.36 944.042 1018.2 944.813C1017.03 945.583 1016.04 946.583 1015.27 947.75L1008.9 956.1" stroke="#070707" stroke-width="6" stroke-linecap="round" stroke-linejoin="round"/>
<path d="M1062.07 974.04C1036.19 978.723 1012.16 990.61 992.729 1008.34C973.301 1026.06 959.267 1048.91 952.239 1074.25L932.029 1073.57C938.445 1047.46 951.351 1023.39 969.549 1003.6C987.747 983.809 1010.65 968.932 1036.13 960.35C1038.37 961.583 1040.65 962.827 1042.98 964.08C1046.54 966.013 1050.21 967.97 1053.98 969.95C1056.68 971.38 1059.39 972.73 1062.07 974.04Z" fill="#B4CFB0" stroke="black" stroke-width="6" stroke-linecap="round" stroke-linejoin="round"/>
<path d="M1112.16 993.45V996.1C1086.4 996.129 1061.22 1003.66 1039.68 1017.78C1018.14 1031.9 1001.18 1051.99 990.879 1075.59L969.879 1074.87C978.654 1051.68 992.946 1030.97 1011.52 1014.55C1030.09 998.12 1052.39 986.465 1076.48 980.59C1088.14 985.505 1100.05 989.797 1112.16 993.45V993.45Z" fill="#B4CFB0" stroke="black" stroke-width="6" stroke-linecap="round" stroke-linejoin="round"/>
</svg>
