<svg width="251" height="251" viewBox="0 0 251 251" fill="none" xmlns="http://www.w3.org/2000/svg">
<path fill-rule="evenodd" clip-rule="evenodd" d="M184.911 61.9917H217.386C219.831 61.9917 221.918 63.7604 222.318 66.1728L239.266 168.252L240.125 171.971C240.406 173.19 241.135 174.26 242.167 174.969L248.546 179.346C250.452 180.654 250.939 183.257 249.636 185.165C249.066 186 248.214 186.6 247.236 186.856L6.63532 249.834C3.07855 250.765 -0.232866 247.668 0.458367 244.057L34.5327 66.0517C34.9837 63.6955 37.0446 61.9917 39.4435 61.9917H67.9286C67.6829 59.9251 67.5567 57.8243 67.5567 55.6956C67.5567 24.9358 93.9105 0 126.42 0C158.929 0 185.283 24.9358 185.283 55.6956C185.283 57.8243 185.156 59.9251 184.911 61.9917ZM75.7467 61.9917V57.2111L75.7467 57.1483C75.7467 30.4006 98.6631 8.71729 126.932 8.71729C155.201 8.71729 178.117 30.4006 178.117 57.1483L178.117 57.1484V61.9917H75.7467Z" fill="url(#paint0_linear_517_1025)"/>
<defs>
<linearGradient id="paint0_linear_517_1025" x1="42.0986" y1="62.0006" x2="140.783" y2="251.716" gradientUnits="userSpaceOnUse">
<stop stop-color="#EFAF00"/>
<stop offset="1" stop-color="#D64D00"/>
</linearGradient>
</defs>
</svg>
