<svg width="508" height="582" viewBox="0 0 508 582" fill="none" xmlns="http://www.w3.org/2000/svg">
<path fill-rule="evenodd" clip-rule="evenodd" d="M254 0L235.5 41L248 71V77.5L229.5 59C226.5 58.1667 220.5 58.6 220.5 67L248 94V147.5L241 141V101C239.5 97.3333 235.1 92.2 229.5 101V128.5L225.5 125L213.5 93L168.5 75L184.5 120.5L216 132.5L220.5 137H192C188.833 139 184.4 144.3 192 149.5H232.5L248 164.5V268L225.5 230L235.5 192C235.333 187.667 233.1 180.9 225.5 188.5L217.5 212L214.5 210L211 175L171.5 146L176 194.5L204 214.5L206 219L180 212C175.5 213 168.6 216.7 177 223.5L215.5 234L238 272L149.5 222.5L143.5 200.5L163 166.5C163.167 162.167 161.6 154.8 154 160L139 184.5L137.5 179.5L142.5 146L112.5 107L103.5 156L126.5 182V186.5L104.5 174C99.8333 173.5 92.1 174.9 98.5 184.5L132 203L134.5 213.5L88.5 187.5L78.5 150.5C76 146.167 70.2 140.4 67 152L74 178.5L69.5 176.5L49.5 148.5L0 143.5L28.5 183L63 186L67 189L43 196C38.8333 198.667 33.5 204.8 45.5 208L82.5 197.5L126.5 223.5L118.5 227L85 208C80.6667 206.667 73.3 207 78.5 219L101 230L96 232L63 227L23 258.5L73.5 266L98.5 243.5H104L91.5 266C90.5 270.667 91 278.4 101 272L120.5 238.5L143.5 234L233.5 285H186.5L159.5 258.5C156.167 256 149.5 253.7 149.5 264.5L170 283.5L162 285L132 270L88.5 291L132 309.5L162 296H170L149.5 316C147.333 319.833 146.3 326.6 159.5 323L186.5 296H230.5L143.5 347L123 342L101 309.5C97.8333 306.333 91.5 302.3 91.5 311.5L104 336.5H98.5L72.5 315L23 323L63 353.5L96 347L101 349L78.5 362.5C75.3333 364.667 71.7 369.7 82.5 372.5L116 353.5L128 355L85 381L45.5 372.5C40.6667 372.167 32.8 373.4 40 381L67 391L63 395L30 398L0 436.5L49 432L68.5 404L73.5 402L67 427.5C66.5 431.667 68.1 438.4 78.5 432L88.5 393L134.5 366.5L132 377L101 395C97.1667 398.333 92.4 405.2 104 406L126.5 393V398L104 425L111.5 472.5L142 436.5L136.5 400.5L138.5 395L152 419C155.167 421.167 161.9 423 163.5 413L143.5 381L149.5 357.5L237.5 306L215 347L178 355C174.167 357.5 168.8 363.3 178 366.5L206 360L204 366.5L178 385L172 434.5L211.5 406L215 372.5L218 366.5L224.5 393C227.5 396.667 234.3 401.1 237.5 389.5L224.5 352L248 311.5V415L232.5 432H195C190.333 432.5 183.3 435.3 192.5 442.5H220L218 448.5L184 460L167.5 504.5L211.5 488L224.5 455.5L229 452V480.5C230.333 483.833 234.5 488.5 240.5 480.5V440.5L248 434.5V485.5L224.5 510.5C220.667 515.667 216.5 524.6 230.5 519L248 503V508L234.5 539L254 582L273 539L259.5 508V503L277 519C291 524.6 286.833 515.667 283 510.5L259.5 485.5V434.5L267 440.5V480.5C273 488.5 277.167 483.833 278.5 480.5V452L283 455.5L296 488L340 504.5L323.5 460L289.5 448.5L287.5 442.5H315C324.2 435.3 317.167 432.5 312.5 432H275L259.5 415V311.5L283 352L270 389.5C273.2 401.1 280 396.667 283 393L289.5 366.5L292.5 372.5L296 406L335.5 434.5L329.5 385L303.5 366.5L301.5 360L329.5 366.5C338.7 363.3 333.333 357.5 329.5 355L292.5 347L270 306L358 357.5L364 381L344 413C345.6 423 352.333 421.167 355.5 419L369 395L371 400.5L365.5 436.5L396 472.5L403.5 425L381 398V393L403.5 406C415.1 405.2 410.333 398.333 406.5 395L375.5 377L373 366.5L419 393L429 432C439.4 438.4 441 431.667 440.5 427.5L434 402L439 404L458.5 432L507.5 436.5L477.5 398L444.5 395L440.5 391L467.5 381C474.7 373.4 466.833 372.167 462 372.5L422.5 381L379.5 355L391.5 353.5L425 372.5C435.8 369.7 432.167 364.667 429 362.5L406.5 349L411.5 347L444.5 353.5L484.5 323L435 315L409 336.5H403.5L416 311.5C416 302.3 409.667 306.333 406.5 309.5L384.5 342L364 347L277 296H321L348 323C361.2 326.6 360.167 319.833 358 316L337.5 296H345.5L375.5 309.5L419 291L375.5 270L345.5 285L337.5 283.5L358 264.5C358 253.7 351.333 256 348 258.5L321 285H274L364 234L387 238.5L406.5 272C416.5 278.4 417 270.667 416 266L403.5 243.5H409L434 266L484.5 258.5L444.5 227L411.5 232L406.5 230L429 219C434.2 207 426.833 206.667 422.5 208L389 227L381 223.5L425 197.5L462 208C474 204.8 468.667 198.667 464.5 196L440.5 189L444.5 186L479 183L507.5 143.5L458 148.5L438 176.5L433.5 178.5L440.5 152C437.3 140.4 431.5 146.167 429 150.5L419 187.5L373 213.5L375.5 203L409 184.5C415.4 174.9 407.667 173.5 403 174L381 186.5V182L404 156L395 107L365 146L370 179.5L368.5 184.5L353.5 160C345.9 154.8 344.333 162.167 344.5 166.5L364 200.5L358 222.5L269.5 272L292 234L330.5 223.5C338.9 216.7 332 213 327.5 212L301.5 219L303.5 214.5L331.5 194.5L336 146L296.5 175L293 210L290 212L282 188.5C274.4 180.9 272.167 187.667 272 192L282 230L259.5 268V164.5L275 149.5H315.5C323.1 144.3 318.667 139 315.5 137H287L291.5 132.5L323 120.5L339 75L294 93L282 125L278 128.5V101C272.4 92.2 268 97.3333 266.5 101V141L259.5 147.5V94L287 67C287 58.6 281 58.1667 278 59L259.5 77.5V71L272 41L254 0Z" fill="url(#paint0_linear_434_16)"/>
<defs>
<linearGradient id="paint0_linear_434_16" x1="508" y1="1.00611e-05" x2="-5.08215e-06" y2="447" gradientUnits="userSpaceOnUse">
<stop stop-color="white"/>
<stop offset="1" stop-color="#DCDCDC"/>
</linearGradient>
</defs>
</svg>
